<svg xmlns="http://www.w3.org/2000/svg" width="659" height="466" fill="none"><g filter="url(#a)"><g filter="url(#b)"><rect width="578" height="385" x="40.5" y="10.5" fill="#777" rx="26"/></g><rect width="574.23" height="381.865" x="42.5" y="12.5" fill="url(#c)" rx="25"/><rect width="471.463" height="353.756" x="94.531" y="26.803" fill="#2A2A2A" opacity=".1" rx="5"/><rect width="536" height="346" x="61.531" y="29.803" fill="#E8EAF6" rx="8"/><mask id="d" width="537" height="347" x="61" y="29" maskUnits="userSpaceOnUse" style="mask-type:luminance"><rect width="536" height="346" x="61.531" y="29.803" fill="#fff" rx="8"/></mask><g mask="url(#d)"><path fill="#5267DF" d="M58 30h547v59H58z"/><g fill="#fff"><circle cx="100" cy="60" r="16" opacity=".245"/><circle cx="561" cy="60" r="16" opacity=".104"/><rect width="120" height="6" x="131" y="50" opacity=".75" rx="3"/><rect width="64" height="6" x="131" y="64" opacity=".25" rx="3"/></g><rect width="261" height="316" x="118.53" y="122.803" fill="#fff" rx="8"/><rect width="128" height="316" x="413.53" y="122.803" fill="#fff" rx="8"/><rect width="120" height="6" x="197" y="161" fill="#242A45" opacity=".5" rx="3"/></g><circle cx="166" cy="171" r="16" fill="#F98E5D"/><rect width="88" height="6" x="434" y="145" fill="#242A45" opacity=".25" rx="3"/><rect width="88" height="6" x="434" y="165" fill="#242A45" opacity=".25" rx="3"/><rect width="88" height="6" x="434" y="185" fill="#242A45" opacity=".25" rx="3"/><rect width="88" height="6" x="434" y="205" fill="#242A45" opacity=".25" rx="3"/><rect width="88" height="6" x="434" y="239" fill="#242A45" opacity=".25" rx="3"/><rect width="88" height="6" x="434" y="259" fill="#242A45" opacity=".25" rx="3"/><rect width="88" height="6" x="434" y="279" fill="#242A45" opacity=".25" rx="3"/><rect width="64" height="6" x="197" y="175" fill="#242A45" opacity=".25" rx="3"/><circle cx="166" cy="227" r="16" fill="#6AC6D6"/><rect width="120" height="6" x="197" y="217" fill="#242A45" opacity=".5" rx="3"/><rect width="64" height="6" x="197" y="231" fill="#242A45" opacity=".25" rx="3"/><circle cx="166" cy="283" r="16" fill="#A47ED4"/><rect width="120" height="6" x="197" y="273" fill="#242A45" opacity=".5" rx="3"/><rect width="64" height="6" x="197" y="287" fill="#242A45" opacity=".25" rx="3"/><circle cx="166" cy="339" r="16" fill="#EC7878"/><rect width="120" height="6" x="197" y="329" fill="#242A45" opacity=".5" rx="3"/><rect width="64" height="6" x="197" y="343" fill="#242A45" opacity=".25" rx="3"/></g><defs><filter id="a" width="586" height="393" x="36.5" y="8.5" color-interpolation-filters="sRGB" filterUnits="userSpaceOnUse"><feFlood flood-opacity="0" result="BackgroundImageFix"/><feColorMatrix in="SourceAlpha" result="hardAlpha" values="0 0 0 0 0 0 0 0 0 0 0 0 0 0 0 0 0 0 127 0"/><feOffset dy="2"/><feGaussianBlur stdDeviation="2"/><feColorMatrix values="0 0 0 0 0 0 0 0 0 0 0 0 0 0 0 0 0 0 0.5 0"/><feBlend in2="BackgroundImageFix" result="effect1_dropShadow_0_372"/><feBlend in="SourceGraphic" in2="effect1_dropShadow_0_372" result="shape"/></filter><filter id="b" width="658" height="465" x=".5" y=".5" color-interpolation-filters="sRGB" filterUnits="userSpaceOnUse"><feFlood flood-opacity="0" result="BackgroundImageFix"/><feColorMatrix in="SourceAlpha" result="hardAlpha" values="0 0 0 0 0 0 0 0 0 0 0 0 0 0 0 0 0 0 127 0"/><feOffset dy="30"/><feGaussianBlur stdDeviation="20"/><feColorMatrix values="0 0 0 0 0.182433 0 0 0 0 0.230633 0 0 0 0 0.506058 0 0 0 0.20012 0"/><feBlend in2="BackgroundImageFix" result="effect1_dropShadow_0_372"/><feBlend in="SourceGraphic" in2="effect1_dropShadow_0_372" result="shape"/></filter><linearGradient id="c" x1="888.042" x2="548.325" y1="206.406" y2="-304.444" gradientUnits="userSpaceOnUse"><stop stop-color="#151515"/><stop offset="1" stop-color="#3D3D3D"/></linearGradient></defs></svg>