<svg width="578" height="385" viewBox="0 0 578 385" fill="none" xmlns="http://www.w3.org/2000/svg">
<g id="Group 2">
<g id="Group 40">
<g id="Group 52">
<rect id="Rectangle Copy 3" width="578" height="385" rx="26" fill="#777777"/>
<rect id="Rectangle Copy 5" x="2" y="2" width="574.23" height="381.865" rx="25" fill="url(#paint0_linear_0_372)"/>
<g id="GoViral - Wordpress Theme">
<rect id="Mask Copy" opacity="0.1" x="54.0304" y="16.3029" width="471.463" height="353.756" rx="5" fill="#2A2A2A"/>
<rect id="Mask" x="21.0304" y="19.3029" width="536" height="346" rx="8" fill="#E8EAF6"/>
<mask id="mask0_0_372" style="mask-type:luminance" maskUnits="userSpaceOnUse" x="21" y="19" width="537" height="347">
<rect id="Mask_2" x="21.0304" y="19.3029" width="536" height="346" rx="8" fill="white"/>
</mask>
<g mask="url(#mask0_0_372)">
<g id="Group 28">
<rect id="Rectangle" x="17.5" y="19.5" width="547" height="59" fill="#5267DF"/>
<g id="Group 7">
<circle id="Oval" opacity="0.244768" cx="59.5" cy="49.5" r="16" fill="white"/>
<circle id="Oval Copy" opacity="0.104399" cx="520.5" cy="49.5" r="16" fill="white"/>
<g id="Group 6">
<rect id="Rectangle_2" opacity="0.75" x="90.5" y="39.5" width="120" height="6" rx="3" fill="white"/>
<rect id="Rectangle Copy 6" opacity="0.25" x="90.5" y="53.5" width="64" height="6" rx="3" fill="white"/>
</g>
</g>
</g>
<g id="Group 26">
<rect id="Rectangle_3" x="78.0304" y="112.303" width="261" height="316" rx="8" fill="white"/>
<rect id="Rectangle Copy 7" x="373.03" y="112.303" width="128" height="316" rx="8" fill="white"/>
<rect id="Rectangle_4" opacity="0.5" x="156.5" y="150.5" width="120" height="6" rx="3" fill="#242A45"/>
</g>
</g>
</g>
</g>
</g>
<g id="Group 29">
<circle id="Oval_2" cx="125.5" cy="160.5" r="16" fill="#F98E5D"/>
<rect id="Rectangle_5" opacity="0.25" x="393.5" y="134.5" width="88" height="6" rx="3" fill="#242A45"/>
<rect id="Rectangle Copy 8" opacity="0.25" x="393.5" y="154.5" width="88" height="6" rx="3" fill="#242A45"/>
<rect id="Rectangle Copy 9" opacity="0.25" x="393.5" y="174.5" width="88" height="6" rx="3" fill="#242A45"/>
<rect id="Rectangle Copy 10" opacity="0.25" x="393.5" y="194.5" width="88" height="6" rx="3" fill="#242A45"/>
<rect id="Rectangle Copy 11" opacity="0.25" x="393.5" y="228.5" width="88" height="6" rx="3" fill="#242A45"/>
<rect id="Rectangle Copy 12" opacity="0.25" x="393.5" y="248.5" width="88" height="6" rx="3" fill="#242A45"/>
<rect id="Rectangle Copy 13" opacity="0.25" x="393.5" y="268.5" width="88" height="6" rx="3" fill="#242A45"/>
<rect id="Rectangle Copy 6_2" opacity="0.25" x="156.5" y="164.5" width="64" height="6" rx="3" fill="#242A45"/>
</g>
<g id="Group 29 Copy">
<circle id="Oval_3" cx="125.5" cy="216.5" r="16" fill="#6AC6D6"/>
<rect id="Rectangle_6" opacity="0.5" x="156.5" y="206.5" width="120" height="6" rx="3" fill="#242A45"/>
<rect id="Rectangle Copy 6_3" opacity="0.25" x="156.5" y="220.5" width="64" height="6" rx="3" fill="#242A45"/>
</g>
<g id="Group 29 Copy 2">
<circle id="Oval_4" cx="125.5" cy="272.5" r="16" fill="#A47ED4"/>
<rect id="Rectangle_7" opacity="0.5" x="156.5" y="262.5" width="120" height="6" rx="3" fill="#242A45"/>
<rect id="Rectangle Copy 6_4" opacity="0.25" x="156.5" y="276.5" width="64" height="6" rx="3" fill="#242A45"/>
</g>
<g id="Group 29 Copy 3">
<circle id="Oval_5" cx="125.5" cy="328.5" r="16" fill="#EC7878"/>
<rect id="Rectangle_8" opacity="0.5" x="156.5" y="318.5" width="120" height="6" rx="3" fill="#242A45"/>
<rect id="Rectangle Copy 6_5" opacity="0.25" x="156.5" y="332.5" width="64" height="6" rx="3" fill="#242A45"/>
</g>
</g>
<defs>
<linearGradient id="paint0_linear_0_372" x1="847.542" y1="195.906" x2="507.825" y2="-314.944" gradientUnits="userSpaceOnUse">
<stop stop-color="#151515"/>
<stop offset="1" stop-color="#3D3D3D"/>
</linearGradient>
</defs>
</svg>
